# xmcd
#
# Track frame offsets:
#	150
#	15035
#	31995
#	58490
#	88917
#
# Disc length: 1549 seconds
# Revision: 0
# Processed by: cddbd v1.5.2PL0 Copyright (c) Steve Scherf et al.
# Submitted via: dBpowerAMP V12.0
#
DISCID=36060b05
DTITLE=Various Artist - (Sex U Up) The Way You Like It
DYEAR=1998
DGENRE=Hip-Hop
TTITLE0=LFO (Lyte Funkie Ones) - (Sex U Up) The Way U Like It [Radio Edit]
TTITLE1=LFO (Lyte Funkie Ones) feat. 95 South - (Sex U Up) The Way U Like It [Dakari's Bootie Edit]
TTITLE2=LFO (Lyte Funkie Ones) - (Sex U Up) The Way U Like It [Lenny B. Club Mix Vocal]
TTITLE3=LFO (Lyte Funkie Ones) - (Sex U Up) The Way U Like It [Love To Infinity Stratomaster Mix]
TTITLE4=LFO (Lyte Funkie Ones) - (Sex U Up) The Way U Like It [DJ Stew's Funky Fresh Mix]
EXTD=
EXTT0=
EXTT1=
EXTT2=
EXTT3=
EXTT4=
PLAYORDER=
